# xmcd
#
# Track frame offsets: 
#        150
#        15619
#        32467
#        44747
#        59304
#        75198
#        93670
#        107244
#        121589
#        133378
#        148121
#        161235
#        178092
#
# Disc length: 2621 seconds
#
# Revision: 0
# Processed by: cddbd v1.5.2PL0 Copyright (c) Steve Scherf et al.
# Submitted via: ExactAudioCopy v1.0b3
#
DISCID=b10a3b0d
DTITLE=Joyce Jonathan - Caractere (Hong Kong Special Edition)
DYEAR=2014
DGENRE=
TTITLE0=La Diluvienne 傾盆大雨 
TTITLE1=Ça Ira 一切都會好的
TTITLE2=Quand Tu Me Prends La Main 當你牽著我的手
TTITLE3=Sans Patience 沒耐性
TTITLE4=Si Seulement Tout Etait Ecrit 如果一切早已註定
TTITLE5=Caractère 真實的我
TTITLE6=Jardin Zen 禪風花園
TTITLE7=Depuis 從此
TTITLE8=Botero 博特羅
TTITLE9=Vivre Avec 接受
TTITLE10=Passage Oublié 被遺忘的經過
TTITLE11=在一起 Ca Ira (中文版)
TTITLE12=個性 Caractère (中文版) 
EXTD=
EXTT0=
EXTT1=
EXTT2=
EXTT3=
EXTT4=
EXTT5=
EXTT6=
EXTT7=
EXTT8=
EXTT9=
EXTT10=
EXTT11=
EXTT12=
PLAYORDER=
